<svg xmlns="http://www.w3.org/2000/svg" width="657" height="689" viewBox="0 0 657 689" fill="none">
  <defs>
    <linearGradient id="blueGrad" x1="40" y1="250" x2="617" y2="650" gradientUnits="userSpaceOnUse">
      <stop offset="0%" stop-color="#0A369D"/>
      <stop offset="100%" stop-color="#0A2C88"/>
    </linearGradient>
    <linearGradient id="goldGrad" x1="250" y1="300" x2="400" y2="560" gradientUnits="userSpaceOnUse">
      <stop offset="0%" stop-color="#FFE14A"/>
      <stop offset="100%" stop-color="#F2C300"/>
    </linearGradient>
  </defs>

  <!-- Top red section -->
  <path d="M 4 228 L 4 86
           A 82 82 0 0 1 86 4
           L 571 4
           A 82 82 0 0 1 653 86
           L 653 228 Z"
        fill="#FF001B"/>

  <!-- Bottom blue shield section -->
  <path d="M 4 261 L 653 261
           L 653 432
           A 111 111 0 0 1 595 529
           L 329 684
           L 62 529
           A 111 111 0 0 1 4 432
           Z"
        fill="url(#blueGrad)"/>

  <!-- White stars -->
  <polygon points="150.00,71.00 167.63,120.73 220.38,122.13 178.53,154.27 193.50,204.87 150.00,175.00 106.50,204.87 121.47,154.27 79.62,122.13 132.37,120.73" fill="#FFFFFF"/>
  <polygon points="329.00,71.00 346.63,120.73 399.38,122.13 357.53,154.27 372.50,204.87 329.00,175.00 285.50,204.87 300.47,154.27 258.62,122.13 311.37,120.73" fill="#FFFFFF"/>
  <polygon points="508.00,71.00 525.63,120.73 578.38,122.13 536.53,154.27 551.50,204.87 508.00,175.00 464.50,204.87 479.47,154.27 437.62,122.13 490.37,120.73" fill="#FFFFFF"/>

  <!-- Gold star -->
  <polygon points="329.00,296.00 360.74,387.31 457.39,389.28 380.36,447.69 408.35,540.22 329.00,485.00 249.65,540.22 277.64,447.69 200.61,389.28 297.26,387.31" fill="url(#goldGrad)"/>
</svg>
